<?xml version="1.0" standalone="no"?>
<!DOCTYPE svg PUBLIC "-//W3C//DTD SVG 20010904//EN"
 "http://www.w3.org/TR/2001/REC-SVG-20010904/DTD/svg10.dtd">
<svg version="1.0" xmlns="http://www.w3.org/2000/svg"
 width="100.000000pt" height="100.000000pt" viewBox="0 0 100.000000 100.000000"
 preserveAspectRatio="xMidYMid meet">

<g transform="translate(0.000000,100.000000) scale(0.100000,-0.100000)"
fill="#000000" stroke="none">
<path d="M805 990 c-4 -6 -2 -17 4 -24 14 -17 2 -29 -16 -14 -20 16 -41 -5
-24 -25 9 -11 8 -17 -4 -27 -8 -7 -15 -20 -15 -28 0 -9 -32 -48 -70 -87 l-71
-71 -56 28 c-66 33 -93 34 -151 8 -35 -16 -47 -29 -68 -74 -13 -30 -30 -58
-37 -64 -7 -5 -43 -17 -82 -26 -77 -19 -116 -40 -157 -83 -95 -99 -68 -236 72
-374 148 -146 286 -167 384 -59 40 45 57 81 76 160 14 63 31 85 67 95 41 10
73 36 94 76 26 52 24 86 -9 152 l-28 56 71 71 c39 38 78 70 87 70 8 0 21 7 28
15 10 12 16 13 27 4 20 -17 41 4 25 24 -15 18 -3 30 15 15 19 -16 41 5 25 24
-7 9 -7 19 -2 28 17 27 10 49 -26 90 -41 45 -72 57 -102 41 -14 -7 -23 -8 -27
-1 -8 13 -22 13 -30 0z m125 -65 l34 -35 -49 -50 c-27 -28 -54 -50 -60 -50 -5
0 -80 -69 -165 -154 l-155 -154 -27 27 -26 28 154 154 c85 85 154 158 154 164
0 10 90 105 100 105 3 0 21 -16 40 -35z m-402 -215 c23 -10 42 -23 42 -27 0
-17 -136 -140 -168 -153 -75 -29 -82 -139 -11 -176 55 -28 107 -11 135 45 19
37 142 171 157 171 4 0 17 -21 28 -46 35 -78 11 -133 -71 -164 -51 -19 -69
-38 -80 -84 -33 -136 -55 -175 -122 -216 -18 -11 -49 -20 -68 -20 -124 0 -330
205 -330 328 0 45 35 106 79 137 20 13 71 33 114 44 43 11 85 25 93 32 8 7 24
34 36 62 22 51 65 87 103 87 11 0 39 -9 63 -20z m-48 -230 c11 -11 20 -29 20
-40 0 -26 -34 -60 -60 -60 -11 0 -29 9 -40 20 -11 11 -20 29 -20 40 0 11 9 29
20 40 11 11 29 20 40 20 11 0 29 -9 40 -20z"/>
<path d="M841 896 c-24 -24 -39 -46 -34 -49 6 -4 29 13 52 37 24 24 39 46 34
49 -6 4 -29 -13 -52 -37z"/>
<path d="M881 856 c-24 -24 -39 -46 -34 -49 6 -4 29 13 52 37 24 24 39 46 34
49 -6 4 -29 -13 -52 -37z"/>
<path d="M205 360 c-19 -21 -18 -21 58 -98 l77 -77 20 20 20 21 -78 77 -78 78
-19 -21z"/>
</g>
</svg>
