<svg xmlns="http://www.w3.org/2000/svg" width="142" height="11" viewBox="0 0 142 11" fill="none">
<path d="M76.4862 0.0962882C78.7685 0.139328 81.0337 -0.0147065 83.3161 0.00115045C87.6649 0.0419254 92.0137 0.117809 96.3668 0.146125C98.9269 0.235603 101.493 0.2945 104.056 0.386243C106.255 0.567465 108.509 0.459867 110.691 0.699986C111.535 0.756618 112.384 0.789462 113.236 0.789462C114.038 0.784931 114.786 0.974081 115.587 0.98654C117.019 1.02505 118.438 1.13832 119.855 1.25838C121.299 1.443 122.955 1.47584 124.436 1.52228C125.592 1.68651 126.77 1.79298 127.954 1.89152C129.503 1.92777 130.946 2.3174 132.514 2.30267C133.382 2.38196 134.164 2.62661 135.055 2.65605C136.508 2.74667 137.838 3.08079 139.133 3.42171C139.906 3.58934 140.56 4.02088 140.374 4.483C140.041 4.91 140.838 5.33134 140.314 5.74022C140.663 6.17063 140.889 6.63048 140.936 7.09939C140.859 7.15716 140.705 7.27155 140.631 7.32931C140.263 7.39727 139.891 7.45731 139.528 7.52526C139.964 7.69516 140.438 7.83787 140.932 7.96019C141.137 8.06779 141.34 8.17766 141.547 8.28866C141.879 8.6647 142.017 9.07698 141.998 9.49152C141.146 9.96157 139.93 10.3149 138.684 10.3195C137.54 10.2991 137 9.7373 136.395 9.32163C135.256 9.0985 134.123 8.80967 132.895 8.77343C131.961 8.70207 131.102 8.45402 130.146 8.4427C129.2 8.43703 128.285 8.28413 127.343 8.29432C126.3 8.45969 125.579 7.9377 124.5 8C124.5 8 121.731 7.72914 121.34 7.70988C119.434 7.61021 117.53 7.50034 115.619 7.42559H112.827C113.128 7.41879 112.523 7.42899 112.827 7.42559L110.056 7.25456C108.697 7.33045 107.33 7.27948 105.981 7.17868C104.992 7.10279 103.968 7.22172 103 7.06428C102.026 6.89778 101.004 7.03143 100.006 7.00199C99.35 6.99859 98.7089 6.83095 98.0507 6.92157C96.636 7.08467 95.2021 6.73581 93.8024 6.88305C92.7274 6.91816 91.6718 6.74488 90.5947 6.78112C89.1009 6.84455 87.6072 6.71203 86.1113 6.77999C83.3716 6.93969 80.6063 6.90571 77.8603 7.00199C76.2874 7.21832 74.6569 7.08807 73.0606 7.18661C70.7868 7.36216 68.5023 7.47656 66.2093 7.51507C65.0917 7.61247 63.9548 7.68723 62.82 7.66798C62.4589 7.65439 62.1127 7.71781 61.7729 7.77218C61.3412 7.77218 60.9053 7.77104 60.48 7.82088C59.0739 7.98511 57.6143 7.91149 56.2039 8.07119C55.3619 8.19352 54.4643 8.08025 53.6309 8.22976C52.7227 8.33623 51.7952 8.36454 50.8742 8.41438C49.5984 8.57295 48.2884 8.61146 46.9848 8.60693C44.4568 8.90481 41.8966 9.12795 39.3108 9.2095C37.8043 9.32956 36.3083 9.49152 34.806 9.62064C33.776 9.59346 32.8378 9.86529 31.8164 9.86869C30.6602 9.87322 29.549 10.0714 28.4057 10.136C25.0463 10.5721 21.5737 10.6491 18.1694 10.9458C16.2397 10.9685 14.2908 11.0749 12.3717 10.9073C10.1193 10.7476 7.83702 10.409 5.97996 9.69087C5.41151 9.49152 5.02685 9.07811 4.26608 9.09057C3.67199 9.09737 2.92618 8.99542 2.70179 8.66696C2.91549 8.36454 3.45829 8.16633 3.81517 7.91036C3.20612 7.88657 2.5928 7.92282 2.02863 8.05081C1.81707 7.72687 1.24435 7.25003 2.10343 7.05862C2.20173 7.02804 2.39406 6.96574 2.49236 6.93516C2.3556 6.86493 2.12053 6.72562 1.93674 6.83548C1.72091 6.99519 1.38326 7.01331 1.10972 6.87966C1.28496 6.73242 1.45805 6.5863 1.62901 6.43906C1.18452 6.47984 0.637443 6.70863 0.21859 6.51721C-0.161797 6.37563 0.0625889 6.114 0.096781 5.91692C0.472894 5.59411 1.21871 5.46046 1.60551 5.16598C1.61192 4.50678 2.23379 3.85551 3.25955 3.47948C3.9092 3.22803 4.71271 2.97319 5.54615 3.10911C5.62094 3.16461 5.77053 3.27447 5.84319 3.32997C5.57393 3.45003 5.28543 3.55763 5.01403 3.67882C5.01617 3.69015 5.01617 3.7128 5.01617 3.72413C5.66582 3.54857 6.35607 3.69694 7.03136 3.72073C9.24958 3.57802 11.4528 3.33563 13.6283 3.09212C14.8934 2.90297 16.2333 2.98565 17.5048 2.80669C18.7486 2.61754 20.0586 2.62547 21.3237 2.49408C22.8196 2.32192 24.3689 2.36723 25.8669 2.18714C29.2007 1.93909 32.5622 1.81337 35.8938 1.55626C36.8533 1.40222 37.8812 1.50982 38.8535 1.37844C40.2575 1.19608 41.7192 1.33539 43.1211 1.15644C44.4503 1.14058 45.7625 0.961623 47.0938 1.02279L47.1301 0.943506C47.5896 0.942373 48.0576 0.936707 48.4893 0.841566C49.9788 0.814383 51.4704 0.796258 52.962 0.775871C54.2314 0.639954 55.535 0.69659 56.8129 0.58106C58.1806 0.587856 59.5269 0.415696 60.8946 0.46893C62.7559 0.481389 64.6066 0.348869 66.4594 0.276381C69.8059 0.208422 73.1396 0.129135 76.4862 0.0962882Z" fill="#4ecca3" fill-opacity="0.6"/>
</svg>